<svg width="25" height="24" viewBox="0 0 25 24" fill="none" xmlns="http://www.w3.org/2000/svg">
<g clip-path="url(#clip0_301_472)">
<path d="M9.875 5.25V18.75" stroke="#757575" stroke-width="3" stroke-linecap="round" stroke-linejoin="round"/>
<path d="M2.75 15C3.54565 15 4.30871 14.6839 4.87132 14.1213C5.43393 13.5587 5.75 12.7956 5.75 12C5.75 11.2044 5.43393 10.4413 4.87132 9.87868C4.30871 9.31607 3.54565 9 2.75 9V6C2.75 5.80109 2.82902 5.61032 2.96967 5.46967C3.11032 5.32902 3.30109 5.25 3.5 5.25H21.5C21.6989 5.25 21.8897 5.32902 22.0303 5.46967C22.171 5.61032 22.25 5.80109 22.25 6V9C21.4544 9 20.6913 9.31607 20.1287 9.87868C19.5661 10.4413 19.25 11.2044 19.25 12C19.25 12.7956 19.5661 13.5587 20.1287 14.1213C20.6913 14.6839 21.4544 15 22.25 15V18C22.25 18.1989 22.171 18.3897 22.0303 18.5303C21.8897 18.671 21.6989 18.75 21.5 18.75H3.5C3.30109 18.75 3.11032 18.671 2.96967 18.5303C2.82902 18.3897 2.75 18.1989 2.75 18V15Z" stroke="#757575" stroke-width="3" stroke-linecap="round" stroke-linejoin="round"/>
</g>
<defs>
<clipPath id="clip0_301_472">
<rect width="24" height="24" fill="white" transform="translate(0.5)"/>
</clipPath>
</defs>
</svg>
