<svg width="25" height="25" viewBox="0 0 25 25" fill="none" xmlns="http://www.w3.org/2000/svg">
<g clip-path="url(#clip0_301_442)">
<path d="M12.5 16.25C14.5711 16.25 16.25 14.5711 16.25 12.5C16.25 10.4289 14.5711 8.75 12.5 8.75C10.4289 8.75 8.75 10.4289 8.75 12.5C8.75 14.5711 10.4289 16.25 12.5 16.25Z" stroke="black" stroke-opacity="0.53" stroke-width="3" stroke-linecap="round" stroke-linejoin="round"/>
<path d="M4.384 17.1959C3.9696 16.4821 3.65212 15.7163 3.43994 14.9187L5.01307 12.9499C4.99525 12.649 4.99525 12.3472 5.01307 12.0462L3.44088 10.0774C3.6527 9.2797 3.96953 8.51363 4.38307 7.79932L6.88713 7.51807C7.08709 7.29278 7.30028 7.07959 7.52557 6.87963L7.80682 4.3765C8.5201 3.96494 9.28492 3.64999 10.0812 3.43994L12.0499 5.01307C12.3509 4.99525 12.6527 4.99525 12.9537 5.01307L14.9224 3.44088C15.7202 3.6527 16.4863 3.96953 17.2006 4.38307L17.4818 6.88713C17.7071 7.08709 17.9203 7.30028 18.1203 7.52557L20.6234 7.80682C21.0378 8.5206 21.3553 9.28639 21.5674 10.084L19.9943 12.0528C20.0121 12.3537 20.0121 12.6555 19.9943 12.9565L21.5665 14.9253C21.3562 15.7228 21.0409 16.4888 20.629 17.2034L18.1249 17.4846C17.925 17.7099 17.7118 17.9231 17.4865 18.1231L17.2053 20.6262C16.4915 21.0406 15.7257 21.3581 14.9281 21.5703L12.9593 19.9971C12.6583 20.0149 12.3566 20.0149 12.0556 19.9971L10.0868 21.5693C9.28931 21.359 8.52325 21.0437 7.80869 20.6318L7.52744 18.1278C7.30215 17.9278 7.08897 17.7146 6.889 17.4893L4.384 17.1959Z" stroke="black" stroke-opacity="0.53" stroke-width="3" stroke-linecap="round" stroke-linejoin="round"/>
</g>
<defs>
<clipPath id="clip0_301_442">
<rect width="24" height="24" fill="white" transform="translate(0.5 0.5)"/>
</clipPath>
</defs>
</svg>
