<svg width="24" height="25" viewBox="0 0 24 25" fill="none" xmlns="http://www.w3.org/2000/svg">
<g clip-path="url(#clip0_301_477)">
<path d="M3.06567 7.71143L12 12.6014L20.9344 7.71143" stroke="#757575" stroke-width="3" stroke-linecap="round" stroke-linejoin="round"/>
<path d="M12.36 2.84351L20.61 7.36039C20.7278 7.42484 20.8261 7.51974 20.8947 7.63518C20.9633 7.75062 20.9997 7.88236 21 8.01664V16.9829C20.9997 17.1172 20.9633 17.2489 20.8947 17.3643C20.8261 17.4798 20.7278 17.5747 20.61 17.6391L12.36 22.156C12.2496 22.2164 12.1258 22.2481 12 22.2481C11.8742 22.2481 11.7504 22.2164 11.64 22.156L3.39 17.6391C3.2722 17.5747 3.17386 17.4798 3.10526 17.3643C3.03666 17.2489 3.0003 17.1172 3 16.9829V8.01664C3.0003 7.88236 3.03666 7.75062 3.10526 7.63518C3.17386 7.51974 3.2722 7.42484 3.39 7.36039L11.64 2.84351C11.7504 2.78312 11.8742 2.75146 12 2.75146C12.1258 2.75146 12.2496 2.78312 12.36 2.84351Z" stroke="#757575" stroke-width="3" stroke-linecap="round" stroke-linejoin="round"/>
<path d="M12 12.6021V22.2499" stroke="#757575" stroke-width="3" stroke-linecap="round" stroke-linejoin="round"/>
</g>
<defs>
<clipPath id="clip0_301_477">
<rect y="0.5" width="24" height="24" rx="3" fill="white"/>
</clipPath>
</defs>
</svg>
