<svg width="168" height="98" viewBox="0 0 168 98" fill="none" xmlns="http://www.w3.org/2000/svg">
<path d="M157.193 97.9999H10.4667C4.70521 97.9999 0 94.4202 0 90.0368V16.5061C0 12.1227 4.70521 8.54297 10.4667 8.54297H157.193C162.954 8.54297 167.659 12.1227 167.659 16.5061V90.0003C167.659 94.4202 162.954 97.9999 157.193 97.9999Z" fill="#FBF6F1"/>
<path d="M0.0483398 8.06124C0.0483398 3.60914 4.34815 0 9.65148 0H158.008C163.312 0 167.612 3.61127 167.612 8.06124V17.3272H0.0483398V8.06124Z" fill="#EEE2D8"/>
<path d="M25.8552 49.967H44.34C45.8647 49.967 47.1007 51.0043 47.1007 52.284C47.1007 53.5636 45.8647 54.601 44.34 54.601H25.8552C24.3305 54.601 23.0945 53.5636 23.0945 52.284C23.0945 51.0043 24.3305 49.967 25.8552 49.967ZM25.8552 75.7563H44.34C45.8647 75.7563 47.1007 76.7937 47.1007 78.0734C47.1007 79.353 45.8647 80.3904 44.34 80.3904H25.8552C24.3305 80.3904 23.0945 79.353 23.0945 78.0734C23.0945 76.7937 24.3305 75.7563 25.8552 75.7563ZM54.1825 49.967H72.6673C74.192 49.967 75.428 51.0043 75.428 52.284C75.428 53.5636 74.192 54.601 72.6673 54.601H54.1825C52.6578 54.601 51.4218 53.5636 51.4218 52.284C51.4218 51.0043 52.6578 49.967 54.1825 49.967ZM54.1825 75.7563H72.6673C74.192 75.7563 75.428 76.7937 75.428 78.0734C75.428 79.353 74.192 80.3904 72.6673 80.3904H54.1825C52.6578 80.3904 51.4218 79.353 51.4218 78.0734C51.4218 76.7937 52.6578 75.7563 54.1825 75.7563ZM82.5098 49.967H100.995C102.519 49.967 103.755 51.0043 103.755 52.284C103.755 53.5636 102.519 54.601 100.995 54.601H82.5098C80.9851 54.601 79.7491 53.5636 79.7491 52.284C79.7491 51.0043 80.9851 49.967 82.5098 49.967ZM82.5098 75.7563H100.995C102.519 75.7563 103.755 76.7937 103.755 78.0734C103.755 79.353 102.519 80.3904 100.995 80.3904H82.5098C80.9851 80.3904 79.7491 79.353 79.7491 78.0734C79.7491 76.7937 80.9851 75.7563 82.5098 75.7563ZM25.8552 37.0723H60.1841C61.7088 37.0723 62.9448 38.1096 62.9448 39.3893C62.9448 40.6689 61.7088 41.7063 60.1841 41.7063H25.8552C24.3305 41.7063 23.0945 40.6689 23.0945 39.3893C23.0945 38.1096 24.3305 37.0723 25.8552 37.0723ZM103.635 37.0723H142.285C143.81 37.0723 145.046 38.1096 145.046 39.3893C145.046 40.6689 143.81 41.7063 142.285 41.7063H103.635C102.111 41.7063 100.875 40.6689 100.875 39.3893C100.875 38.1096 102.111 37.0723 103.635 37.0723ZM103.635 62.8617H142.285C143.81 62.8617 145.046 63.899 145.046 65.1787C145.046 66.4583 143.81 67.4957 142.285 67.4957H103.635C102.111 67.4957 100.875 66.4583 100.875 65.1787C100.875 63.899 102.111 62.8617 103.635 62.8617ZM70.0266 62.8617H76.9884C78.5131 62.8617 79.7491 63.899 79.7491 65.1787C79.7491 66.4583 78.5131 67.4957 76.9884 67.4957H70.0266C68.5019 67.4957 67.2659 66.4583 67.2659 65.1787C67.2659 63.899 68.5019 62.8617 70.0266 62.8617ZM86.831 37.0723H93.7928C95.3175 37.0723 96.5535 38.1096 96.5535 39.3893C96.5535 40.6689 95.3175 41.7063 93.7928 41.7063H86.831C85.3063 41.7063 84.0702 40.6689 84.0702 39.3893C84.0702 38.1096 85.3063 37.0723 86.831 37.0723ZM110.837 49.967H142.285C143.81 49.967 145.046 51.0043 145.046 52.284C145.046 53.5636 143.81 54.601 142.285 54.601H110.837C109.312 54.601 108.076 53.5636 108.076 52.284C108.076 51.0043 109.312 49.967 110.837 49.967Z" fill="#EEE2D8"/>
<path d="M25.8554 62.8613H60.1843C61.709 62.8613 62.945 63.8987 62.945 65.1783C62.945 66.458 61.709 67.4954 60.1843 67.4954H25.8554C24.3307 67.4954 23.0947 66.458 23.0947 65.1783C23.0947 63.8987 24.3307 62.8613 25.8554 62.8613ZM86.8312 62.8613H93.793C95.3177 62.8613 96.5537 63.8987 96.5537 65.1783C96.5537 66.458 95.3177 67.4954 93.793 67.4954H86.8312C85.3065 67.4954 84.0705 66.458 84.0705 65.1783C84.0705 63.8987 85.3065 62.8613 86.8312 62.8613Z" fill="#737EF2"/>
<path d="M70.0266 37.0723H76.9884C78.5131 37.0723 79.7491 38.1096 79.7491 39.3893C79.7491 40.6689 78.5131 41.7063 76.9884 41.7063H70.0266C68.5019 41.7063 67.2659 40.6689 67.2659 39.3893C67.2659 38.1096 68.5019 37.0723 70.0266 37.0723ZM110.837 75.7563H142.285C143.81 75.7563 145.046 76.7937 145.046 78.0734C145.046 79.353 143.81 80.3904 142.285 80.3904H110.837C109.312 80.3904 108.076 79.353 108.076 78.0734C108.076 76.7937 109.312 75.7563 110.837 75.7563Z" fill="#FFDF00"/>
</svg>
