<svg width="92" height="59" viewBox="0 0 92 59" fill="none" xmlns="http://www.w3.org/2000/svg">
<path d="M75.951 0H10.476C4.69027 0 0 4.69179 0 10.4794V43.4895C0 49.2771 4.69027 53.9689 10.476 53.9689H75.951L87.5424 57.5761C89.2343 58.1026 90.8244 56.5187 90.3044 54.8247L86.427 42.1937V10.4794C86.427 4.69179 81.7368 0 75.951 0Z" fill="#F77234"/>
<path d="M23.2769 26.9137C23.2769 27.9641 23.1133 28.9327 22.7862 29.8196C22.459 30.7064 21.9855 31.4683 21.3655 32.1055C20.7456 32.7426 20.0052 33.2333 19.1442 33.5777C18.2832 33.9135 17.3146 34.0814 16.2384 34.0814C15.1708 34.0814 14.2108 33.9092 13.3584 33.5648C12.5061 33.2204 11.7656 32.7297 11.1371 32.0925C10.5172 31.4468 10.0436 30.6891 9.71648 29.8196C9.39791 28.9414 9.23863 27.9728 9.23863 26.9137C9.23863 25.8461 9.40222 24.8689 9.72939 23.9821C10.0566 23.0953 10.5258 22.3376 11.1371 21.7091C11.7484 21.0806 12.4888 20.5985 13.3584 20.2627C14.228 19.9183 15.188 19.7461 16.2384 19.7461C17.306 19.7461 18.2746 19.9183 19.1442 20.2627C20.0138 20.6071 20.7586 21.0978 21.3785 21.735C21.9984 22.3721 22.4676 23.1297 22.7862 24.0079C23.1133 24.8861 23.2769 25.8547 23.2769 26.9137ZM19.7383 26.9137C19.7383 25.4759 19.4197 24.3566 18.7826 23.5559C18.1541 22.7552 17.306 22.3549 16.2384 22.3549C15.5496 22.3549 14.9426 22.5357 14.4174 22.8973C13.8922 23.2503 13.4876 23.7755 13.2034 24.4729C12.9193 25.1703 12.7773 25.9839 12.7773 26.9137C12.7773 27.835 12.915 28.64 13.1905 29.3288C13.4747 30.0176 13.875 30.5471 14.3916 30.9173C14.9168 31.2789 15.5324 31.4597 16.2384 31.4597C17.306 31.4597 18.1541 31.0594 18.7826 30.2587C19.4197 29.4493 19.7383 28.3344 19.7383 26.9137ZM39.2653 26.9137C39.2653 27.9641 39.1017 28.9327 38.7746 29.8196C38.4474 30.7064 37.9739 31.4683 37.354 32.1055C36.734 32.7426 35.9936 33.2333 35.1326 33.5777C34.2716 33.9135 33.303 34.0814 32.2268 34.0814C31.1592 34.0814 30.1992 33.9092 29.3468 33.5648C28.4945 33.2204 27.754 32.7297 27.1255 32.0925C26.5056 31.4468 26.0321 30.6891 25.7049 29.8196C25.3863 28.9414 25.227 27.9728 25.227 26.9137C25.227 25.8461 25.3906 24.8689 25.7178 23.9821C26.045 23.0953 26.5142 22.3376 27.1255 21.7091C27.7368 21.0806 28.4772 20.5985 29.3468 20.2627C30.2164 19.9183 31.1764 19.7461 32.2268 19.7461C33.2944 19.7461 34.263 19.9183 35.1326 20.2627C36.0022 20.6071 36.747 21.0978 37.3669 21.735C37.9868 22.3721 38.456 23.1297 38.7746 24.0079C39.1017 24.8861 39.2653 25.8547 39.2653 26.9137ZM35.7267 26.9137C35.7267 25.4759 35.4081 24.3566 34.771 23.5559C34.1425 22.7552 33.2944 22.3549 32.2268 22.3549C31.538 22.3549 30.931 22.5357 30.4058 22.8973C29.8806 23.2503 29.476 23.7755 29.1919 24.4729C28.9077 25.1703 28.7657 25.9839 28.7657 26.9137C28.7657 27.835 28.9034 28.64 29.1789 29.3288C29.4631 30.0176 29.8634 30.5471 30.38 30.9173C30.9052 31.2789 31.5208 31.4597 32.2268 31.4597C33.2944 31.4597 34.1425 31.0594 34.771 30.2587C35.4081 29.4493 35.7267 28.3344 35.7267 26.9137ZM45.3094 21.722V22.1482C45.9724 21.3303 46.6612 20.7319 47.3758 20.3531C48.0904 19.9656 48.8997 19.7719 49.8037 19.7719C50.8886 19.7719 51.8873 20.0517 52.7999 20.6114C53.7126 21.171 54.4315 21.9889 54.9567 23.0652C55.4905 24.1414 55.7574 25.4156 55.7574 26.8879C55.7574 27.9728 55.6024 28.9715 55.2925 29.8841C54.9911 30.7882 54.5736 31.5501 54.0398 32.17C53.506 32.7813 52.8731 33.2549 52.1413 33.5907C51.4181 33.9178 50.6389 34.0814 49.8037 34.0814C48.7964 34.0814 47.9483 33.8791 47.2595 33.4744C46.5794 33.0698 45.9293 32.4757 45.3094 31.6922V36.9872C45.3094 38.537 44.7455 39.3119 43.6176 39.3119C42.9546 39.3119 42.5155 39.1095 42.3003 38.7049C42.085 38.3088 41.9774 37.7277 41.9774 36.9614V21.7479C41.9774 21.0763 42.1238 20.5769 42.4165 20.2498C42.7093 19.914 43.1096 19.7461 43.6176 19.7461C44.117 19.7461 44.5216 19.9183 44.8316 20.2627C45.1501 20.5985 45.3094 21.0849 45.3094 21.722ZM52.2188 26.8492C52.2188 25.9193 52.0767 25.1229 51.7926 24.46C51.5085 23.7884 51.1124 23.2761 50.6044 22.9231C50.1051 22.5615 49.5497 22.3807 48.9385 22.3807C47.9655 22.3807 47.1433 22.7638 46.4717 23.5301C45.8088 24.2964 45.4773 25.4243 45.4773 26.9137C45.4773 28.3171 45.8088 29.4106 46.4717 30.1941C47.1347 30.969 47.9569 31.3564 48.9385 31.3564C49.5239 31.3564 50.0663 31.1885 50.5657 30.8527C51.0651 30.5083 51.4654 29.9961 51.7668 29.3159C52.0681 28.6357 52.2188 27.8135 52.2188 26.8492ZM69.9378 29.4709C69.9378 30.4438 69.701 31.2789 69.2275 31.9763C68.7539 32.6651 68.0522 33.1903 67.1224 33.5519C66.2011 33.9049 65.0775 34.0814 63.7516 34.0814C62.486 34.0814 61.4011 33.8877 60.4971 33.5003C59.5931 33.1128 58.9258 32.6307 58.4953 32.0538C58.0648 31.4683 57.8496 30.8829 57.8496 30.2974C57.8496 29.91 57.9874 29.5785 58.2629 29.303C58.5384 29.0275 58.8871 28.8897 59.309 28.8897C59.6792 28.8897 59.9633 28.9801 60.1613 29.1609C60.3594 29.3417 60.5488 29.5957 60.7296 29.9229C61.0912 30.5514 61.5217 31.0206 62.0211 31.3306C62.529 31.6405 63.2178 31.7955 64.0874 31.7955C64.7934 31.7955 65.3703 31.6405 65.818 31.3306C66.2743 31.012 66.5025 30.6504 66.5025 30.2457C66.5025 29.6258 66.2657 29.1738 65.7921 28.8897C65.3272 28.6056 64.5566 28.3344 63.4804 28.0761C62.2664 27.7747 61.2763 27.4605 60.51 27.1333C59.7524 26.7975 59.1454 26.3584 58.6891 25.816C58.2327 25.2736 58.0046 24.6063 58.0046 23.8142C58.0046 23.1082 58.2155 22.441 58.6374 21.8124C59.0593 21.1839 59.6792 20.6846 60.4971 20.3143C61.3237 19.9355 62.3181 19.7461 63.4804 19.7461C64.3931 19.7461 65.211 19.8408 65.9342 20.0302C66.666 20.2196 67.273 20.4736 67.7552 20.7922C68.2459 21.1107 68.6162 21.4637 68.8658 21.8512C69.1241 22.2386 69.2533 22.6175 69.2533 22.9877C69.2533 23.3923 69.1155 23.7238 68.84 23.9821C68.5731 24.2404 68.19 24.3696 67.6906 24.3696C67.329 24.3696 67.019 24.2662 66.7608 24.0596C66.5111 23.853 66.2226 23.543 65.8955 23.1297C65.6286 22.7853 65.3143 22.5098 64.9527 22.3032C64.5911 22.0966 64.1003 21.9932 63.4804 21.9932C62.8433 21.9932 62.3138 22.131 61.8919 22.4065C61.47 22.6734 61.2591 23.0092 61.2591 23.4139C61.2591 23.7841 61.4141 24.0897 61.724 24.3308C62.034 24.5633 62.4515 24.757 62.9767 24.912C63.5019 25.0669 64.2252 25.2564 65.1464 25.4802C66.2399 25.7471 67.131 26.0657 67.8198 26.4359C68.5172 26.8061 69.0424 27.2452 69.3954 27.7532C69.757 28.2526 69.9378 28.8251 69.9378 29.4709ZM74.0834 25.5577L73.6701 19.3716C73.5926 18.1662 73.5539 17.3009 73.5539 16.7757C73.5539 16.0611 73.739 15.5058 74.1092 15.1097C74.4881 14.705 74.9831 14.5027 75.5944 14.5027C76.3349 14.5027 76.8299 14.761 77.0796 15.2776C77.3293 15.7856 77.4541 16.5217 77.4541 17.486C77.4541 18.0543 77.424 18.6311 77.3637 19.2166L76.8084 25.5835C76.7481 26.3412 76.619 26.9224 76.421 27.327C76.2229 27.7317 75.8958 27.934 75.4394 27.934C74.9745 27.934 74.6516 27.7403 74.4708 27.3528C74.29 26.9568 74.1609 26.3584 74.0834 25.5577ZM75.5169 34.0556C74.9917 34.0556 74.5311 33.8877 74.1351 33.5519C73.7476 33.2075 73.5539 32.7297 73.5539 32.1184C73.5539 31.5846 73.739 31.1326 74.1092 30.7623C74.4881 30.3835 74.9487 30.1941 75.4911 30.1941C76.0335 30.1941 76.4941 30.3835 76.873 30.7623C77.2604 31.1326 77.4541 31.5846 77.4541 32.1184C77.4541 32.7211 77.2604 33.1946 76.873 33.539C76.4855 33.8834 76.0335 34.0556 75.5169 34.0556Z" fill="white"/>
</svg>
