<svg width="146" height="80" viewBox="0 0 146 80" fill="none" xmlns="http://www.w3.org/2000/svg">
<path d="M140.092 0H5.6262C2.51894 0 0 1.8415 0 4.11311V75.8869C0 78.1585 2.51894 80 5.6262 80H140.092C143.2 80 145.719 78.1585 145.719 75.8869V4.11311C145.719 1.8415 143.2 0 140.092 0Z" fill="#FBF6F1"/>
<path d="M21.91 73.7757C14.6259 73.7757 8.72095 69.4143 8.72095 64.0343C8.72095 58.6543 14.6259 54.293 21.91 54.293C29.1942 54.293 35.0991 58.6543 35.0991 64.0343C35.0991 69.4143 29.1942 73.7757 21.91 73.7757ZM21.9389 63.9935C22.9121 63.9935 23.7011 63.4182 23.7011 62.7086C23.7011 61.999 22.9121 61.4238 21.9389 61.4238C20.9656 61.4238 20.1766 61.999 20.1766 62.7086C20.1766 63.4182 20.9656 63.9935 21.9389 63.9935ZM21.9389 64.6359C20.1748 64.6359 18.7448 65.6785 18.7448 66.9647H25.1329C25.1329 65.6785 23.7029 64.6359 21.9389 64.6359Z" fill="#EEE2D8"/>
<path d="M8.72062 17.2765C8.72062 16.8214 9.22232 16.4524 9.84553 16.4524H102.968C103.589 16.4524 104.093 16.8207 104.093 17.2765V46.7353C104.093 47.1904 103.591 47.5593 102.968 47.5593H9.84553C9.22426 47.5593 8.72062 47.191 8.72062 46.7353V17.2765ZM43.9972 62.2199H117.909C119.058 62.2199 119.991 62.9014 119.991 63.742V64.5635C119.991 65.4041 119.058 66.0855 117.909 66.0855H43.9972C42.8474 66.0855 41.9152 65.4041 41.9152 64.5635V63.742C41.9152 62.9014 42.8474 62.2199 43.9972 62.2199ZM43.9972 68.5016H131.142C132.292 68.5016 133.224 69.183 133.224 70.0237V70.8451C133.224 71.6857 132.292 72.3672 131.142 72.3672H43.9972C42.8474 72.3672 41.9152 71.6857 41.9152 70.8451V70.0237C41.9152 69.183 42.8474 68.5016 43.9972 68.5016ZM43.9972 55.9383H99.3822C100.532 55.9383 101.464 56.6198 101.464 57.4604V58.2818C101.464 59.1225 100.532 59.8039 99.3822 59.8039H43.9972C42.8474 59.8039 41.9152 59.1225 41.9152 58.2818V57.4604C41.9152 56.6198 42.8474 55.9383 43.9972 55.9383ZM0 4.11401C0 1.84191 2.51872 0 5.62834 0H140.372C143.48 0 146 1.84208 146 4.11401V9.04884H0V4.11401Z" fill="#EEE2D8"/>
<path d="M115.362 40.7546H132.562C133.527 40.7546 134.362 40.8978 135.05 41.1667C135.737 41.4355 136.277 41.8301 136.645 42.3328C137.013 42.8355 137.208 43.4457 137.208 44.1514V44.1625C137.208 44.8682 137.013 45.4784 136.645 45.9811C136.277 46.4838 135.737 46.8784 135.05 47.1472C134.362 47.4161 133.527 47.5593 132.562 47.5593H115.362C114.397 47.5593 113.562 47.4161 112.875 47.1472C112.187 46.8784 111.647 46.4838 111.28 45.9811C110.912 45.4784 110.716 44.8682 110.716 44.1625V44.1514C110.716 43.4457 110.912 42.8355 111.28 42.3328C111.647 41.8301 112.187 41.4355 112.875 41.1667C113.562 40.8978 114.397 40.7546 115.362 40.7546Z" fill="#EEE2D8"/>
<path d="M8.29818 6.58079C9.77413 6.58079 10.9706 5.70608 10.9706 4.62707C10.9706 3.54805 9.77413 2.67334 8.29818 2.67334C6.82223 2.67334 5.62573 3.54805 5.62573 4.62707C5.62573 5.70608 6.82223 6.58079 8.29818 6.58079Z" fill="#F74930"/>
<path d="M17.0191 6.58079C18.4951 6.58079 19.6916 5.70608 19.6916 4.62707C19.6916 3.54805 18.4951 2.67334 17.0191 2.67334C15.5432 2.67334 14.3467 3.54805 14.3467 4.62707C14.3467 5.70608 15.5432 6.58079 17.0191 6.58079Z" fill="#FFDF00"/>
<path d="M26.0216 6.58079C27.4975 6.58079 28.694 5.70608 28.694 4.62707C28.694 3.54805 27.4975 2.67334 26.0216 2.67334C24.5456 2.67334 23.3491 3.54805 23.3491 4.62707C23.3491 5.70608 24.5456 6.58079 26.0216 6.58079Z" fill="#00A76F"/>
</svg>
