<svg width="369" height="60" viewBox="0 0 369 60" fill="none" xmlns="http://www.w3.org/2000/svg">
<path d="M-6 1H125.076C134.722 1 143.964 4.8708 150.731 11.7446L157.09 18.2036C170.703 32.0327 192.828 32.5828 207.112 19.4474L216.841 10.5009C223.486 4.39097 232.183 1 241.209 1H369V60H-6V1Z" fill="white"/>
<path d="M125.076 0.5C134.856 0.5 144.227 4.42425 151.088 11.3936L157.446 17.8525C170.871 31.4895 192.689 32.0321 206.774 19.0791L216.503 10.1328C223.239 3.93811 232.057 0.500065 241.209 0.5H369.5V60.5H-6.5V0.5H125.076Z" stroke="black" stroke-opacity="0.13"/>
</svg>
