<svg width="31" height="30" viewBox="0 0 31 30" fill="none" xmlns="http://www.w3.org/2000/svg">
<g clip-path="url(#clip0_396_1020)">
<path d="M18.4199 21.5045L10.3023 18.3885C9.98815 18.2678 9.72634 18.0408 9.56248 17.7469C9.39861 17.453 9.34308 17.111 9.40557 16.7804L11.8933 3.60931L9.82007 2.81348" stroke="black" stroke-opacity="0.09" stroke-width="1.5" stroke-linecap="round" stroke-linejoin="round"/>
<path d="M9.08451 21.7684C10.0105 22.1239 11.0493 21.6614 11.4048 20.7354C11.7603 19.8094 11.2977 18.7706 10.3717 18.4151C9.44574 18.0596 8.40691 18.5222 8.05145 19.4482C7.69599 20.3742 8.15851 21.413 9.08451 21.7684Z" stroke="black" stroke-opacity="0.09" stroke-width="1.5" stroke-linecap="round" stroke-linejoin="round"/>
<path d="M17.1326 24.8578C18.0586 25.2133 19.0974 24.7507 19.4529 23.8247C19.8084 22.8987 19.3458 21.8599 18.4198 21.5045C17.4938 21.149 16.455 21.6115 16.0995 22.5375C15.7441 23.4635 16.2066 24.5023 17.1326 24.8578Z" stroke="black" stroke-opacity="0.09" stroke-width="1.5" stroke-linecap="round" stroke-linejoin="round"/>
<path d="M9.86065 14.3717L20.386 18.412C20.7001 18.5325 21.0466 18.539 21.365 18.4303C21.6834 18.3215 21.9536 18.1045 22.1284 17.8169L25.2994 12.6031L11.2153 7.19678" stroke="black" stroke-opacity="0.09" stroke-width="1.5" stroke-linecap="round" stroke-linejoin="round"/>
</g>
<defs>
<clipPath id="clip0_396_1020">
<rect width="22.9883" height="22.9883" fill="white" transform="translate(8.58032 0.0292969) rotate(21)"/>
</clipPath>
</defs>
</svg>
