<svg width="12" height="13" viewBox="0 0 12 13" fill="none" xmlns="http://www.w3.org/2000/svg">
<g clip-path="url(#clip0_348_549)">
<path d="M10.125 3.125H1.875" stroke="#757575" stroke-width="2" stroke-linecap="round" stroke-linejoin="round"/>
<path d="M4.875 5.375V8.375" stroke="#757575" stroke-width="2" stroke-linecap="round" stroke-linejoin="round"/>
<path d="M7.125 5.375V8.375" stroke="#757575" stroke-width="2" stroke-linecap="round" stroke-linejoin="round"/>
<path d="M9.375 3.125V10.25C9.375 10.3495 9.33549 10.4448 9.26517 10.5152C9.19484 10.5855 9.09946 10.625 9 10.625H3C2.90054 10.625 2.80516 10.5855 2.73484 10.5152C2.66451 10.4448 2.625 10.3495 2.625 10.25V3.125" stroke="#757575" stroke-width="2" stroke-linecap="round" stroke-linejoin="round"/>
<path d="M7.875 3.125V2.375C7.875 2.17609 7.79598 1.98532 7.65533 1.84467C7.51468 1.70402 7.32391 1.625 7.125 1.625H4.875C4.67609 1.625 4.48532 1.70402 4.34467 1.84467C4.20402 1.98532 4.125 2.17609 4.125 2.375V3.125" stroke="#757575" stroke-width="2" stroke-linecap="round" stroke-linejoin="round"/>
</g>
<defs>
<clipPath id="clip0_348_549">
<rect width="12" height="12" fill="white" transform="translate(0 0.5)"/>
</clipPath>
</defs>
</svg>
