<svg width="12" height="13" viewBox="0 0 12 13" fill="none" xmlns="http://www.w3.org/2000/svg">
<g clip-path="url(#clip0_347_530)">
<path d="M4.5 10.6251H2.25C2.15054 10.6251 2.05516 10.5856 1.98484 10.5152C1.91451 10.4449 1.875 10.3495 1.875 10.2501V8.15522C1.87505 8.05589 1.91449 7.96064 1.98469 7.89037L7.76531 2.10975C7.83563 2.03948 7.93098 2 8.03039 2C8.1298 2 8.22515 2.03948 8.29547 2.10975L10.3903 4.20319C10.4606 4.2735 10.5001 4.36885 10.5001 4.46826C10.5001 4.56768 10.4606 4.66302 10.3903 4.73334L4.5 10.6251Z" stroke="#757575" stroke-width="2" stroke-linecap="round" stroke-linejoin="round"/>
<path d="M10.125 10.625H4.5" stroke="#757575" stroke-width="2" stroke-linecap="round" stroke-linejoin="round"/>
<path d="M6.375 3.5L9 6.125" stroke="#757575" stroke-width="2" stroke-linecap="round" stroke-linejoin="round"/>
</g>
<defs>
<clipPath id="clip0_347_530">
<rect width="12" height="12" fill="white" transform="translate(0 0.5)"/>
</clipPath>
</defs>
</svg>
