<svg width="21" height="20" viewBox="0 0 21 20" fill="none" xmlns="http://www.w3.org/2000/svg">
<g clip-path="url(#clip0_344_1235)">
<path d="M10.1425 10.625C11.5232 10.625 12.6425 9.50571 12.6425 8.125C12.6425 6.74429 11.5232 5.625 10.1425 5.625C8.76174 5.625 7.64246 6.74429 7.64246 8.125C7.64246 9.50571 8.76174 10.625 10.1425 10.625Z" stroke="black" stroke-width="2" stroke-linecap="round" stroke-linejoin="round"/>
<path d="M16.3925 8.125C16.3925 13.75 10.1425 18.125 10.1425 18.125C10.1425 18.125 3.89246 13.75 3.89246 8.125C3.89246 6.4674 4.55094 4.87769 5.72304 3.70558C6.89514 2.53348 8.48485 1.875 10.1425 1.875C11.8001 1.875 13.3898 2.53348 14.5619 3.70558C15.734 4.87769 16.3925 6.4674 16.3925 8.125Z" stroke="black" stroke-width="2" stroke-linecap="round" stroke-linejoin="round"/>
</g>
<defs>
<clipPath id="clip0_344_1235">
<rect width="20" height="20" fill="white" transform="translate(0.142456)"/>
</clipPath>
</defs>
</svg>
