<svg width="21" height="20" viewBox="0 0 21 20" fill="none" xmlns="http://www.w3.org/2000/svg">
<g clip-path="url(#clip0_344_1230)">
<path d="M12.8743 11.3549C12.9608 11.2973 13.0604 11.2622 13.1639 11.2528C13.2675 11.2433 13.3717 11.2599 13.4672 11.3009L17.1516 12.9517C17.2758 13.0048 17.3794 13.0967 17.447 13.2135C17.5146 13.3304 17.5426 13.4661 17.5266 13.6002C17.4052 14.5072 16.9586 15.3393 16.2696 15.9418C15.5807 16.5442 14.6965 16.8759 13.7813 16.8752C10.9634 16.8752 8.26088 15.7557 6.2683 13.7632C4.27573 11.7706 3.15631 9.06809 3.15631 6.25017C3.15561 5.33501 3.48731 4.45075 4.08972 3.76183C4.69213 3.07291 5.52424 2.62623 6.43131 2.50485C6.5654 2.48892 6.70104 2.51685 6.81793 2.58445C6.93483 2.65205 7.02668 2.75569 7.07975 2.87985L8.73053 6.56735C8.77109 6.66206 8.78761 6.76533 8.77861 6.86797C8.76961 6.9706 8.73539 7.06942 8.67897 7.15563L7.00944 9.14079C6.95022 9.23015 6.9152 9.33335 6.9078 9.4403C6.90041 9.54725 6.92089 9.65429 6.96725 9.75095C7.61334 11.0736 8.98053 12.4244 10.3071 13.0642C10.4043 13.1104 10.5118 13.1304 10.6191 13.1223C10.7263 13.1142 10.8297 13.0783 10.9188 13.0181L12.8743 11.3549Z" stroke="black" stroke-width="2" stroke-linecap="round" stroke-linejoin="round"/>
</g>
<defs>
<clipPath id="clip0_344_1230">
<rect width="20" height="20" fill="white" transform="translate(0.031311)"/>
</clipPath>
</defs>
</svg>
