<svg width="18" height="18" viewBox="0 0 18 18" fill="none" xmlns="http://www.w3.org/2000/svg">
<path d="M17.2656 7.87262L2.14749 0.165371C1.89248 0.0371503 1.59978 -0.0186232 1.30839 0.0054812C1.017 0.0295856 0.740748 0.132423 0.516442 0.300294C0.292136 0.468164 0.130425 0.693096 0.0528532 0.945124C-0.0247185 1.19715 -0.0144681 1.46431 0.0822391 1.711L2.8386 8.99789L0.0822391 16.2856C0.00553023 16.4795 -0.0179848 16.687 0.013667 16.8908C0.0453188 17.0945 0.131214 17.2884 0.264146 17.4564C0.397077 17.6243 0.573167 17.7613 0.77764 17.8559C0.982113 17.9505 1.209 17.9999 1.43927 18C1.68945 17.9995 1.93525 17.9414 2.15289 17.8312L17.2638 10.1111C17.4867 9.99958 17.6724 9.8371 17.8018 9.64034C17.9311 9.44357 17.9995 9.21961 18 8.99143C18.0005 8.76325 17.9329 8.53906 17.8044 8.34189C17.6758 8.14471 17.4908 7.98164 17.2683 7.86941L17.2656 7.87262ZM1.43927 16.714C1.43966 16.7108 1.43966 16.7075 1.43927 16.7043L4.11555 9.6409H9.35831C9.54924 9.6409 9.73235 9.57315 9.86736 9.45256C10.0024 9.33198 10.0782 9.16842 10.0782 8.99789C10.0782 8.82735 10.0024 8.6638 9.86736 8.54321C9.73235 8.42263 9.54924 8.35488 9.35831 8.35488H4.11555L1.44467 1.29465C1.44379 1.2901 1.44196 1.28574 1.43927 1.28179L16.5574 8.98422L1.43927 16.714Z" fill="#14213D"/>
</svg>
